# xmcd
#
# Track frame offsets: 
#        150
#        22936
#        39603
#        51975
#        69082
#        88639
#        120075
#        135864
#        147259
#        168030
#        189559
#        201785
#
# Disc length: 2935 seconds
#
# Revision: 0
# Processed by: cddbd v1.4PL0 Copyright (c) Steve Scherf et al.
# Submitted via: ExactAudioCopy v0.90a11
#
DISCID=910b750c
DTITLE=Heaven Hill Band - The Man of the Road
DYEAR=1900
DGENRE=
TTITLE0=Hideaway
TTITLE1=Hoochie Coochie Man
TTITLE2=Don't You Lie To Me
TTITLE3=There's Gotta Be A Change
TTITLE4=Talk To Me, Baby
TTITLE5=Love Her With A Feelin'
TTITLE6=For A Little While
TTITLE7=Love Struck Baby
TTITLE8=I'm Ready
TTITLE9=The Man Of The Road
TTITLE10=Trouble In Mind
TTITLE11=Country Boy
EXTD=
EXTT0=
EXTT1=
EXTT2=
EXTT3=
EXTT4=
EXTT5=
EXTT6=
EXTT7=
EXTT8=
EXTT9=
EXTT10=
EXTT11=
PLAYORDER=
